<svg xmlns="http://www.w3.org/2000/svg" xmlns:xlink="http://www.w3.org/1999/xlink" width="500" zoomAndPan="magnify" viewBox="0 0 375 374.999991" height="500" preserveAspectRatio="xMidYMid meet" version="1.2"><defs><clipPath id="5049729bd8"><path d="M 41 48.617188 L 358.566406 48.617188 L 358.566406 326 L 41 326 Z M 41 48.617188 "/></clipPath><clipPath id="4ad9c2bf7a"><path d="M 16.566406 166 L 70 166 L 70 237 L 16.566406 237 Z M 16.566406 166 "/></clipPath></defs><g id="00eaa83f6b"><g clip-rule="nonzero" clip-path="url(#5049729bd8)"><path style=" stroke:none;fill-rule:nonzero;fill:#ffffff;fill-opacity:1;" d="M 357.835938 177.46875 L 357.835938 173.984375 L 356.742188 169.546875 C 356.675781 169.207031 356.605469 168.867188 356.539062 168.523438 C 356.402344 168.046875 356.265625 167.570312 356.195312 167.160156 L 345.070312 122.511719 L 334.488281 109.8125 C 330.597656 104.898438 326.773438 100.050781 322.539062 95.476562 L 287.382812 81.210938 L 207.648438 48.851562 C 205.871094 56.496094 202.527344 63.664062 200.136719 71.175781 C 196.042969 83.328125 191.332031 95.273438 187.574219 107.492188 L 190.851562 157.261719 L 209.898438 166.203125 C 221.367188 171.597656 232.835938 177.058594 244.375 182.382812 L 244.375 182.722656 C 222.664062 176.441406 201.160156 169.480469 179.382812 163.539062 C 178.222656 142.652344 177.402344 121.761719 175.96875 100.941406 C 148.800781 113.089844 121.425781 125.039062 94.527344 137.804688 C 83.605469 159.785156 71.863281 181.425781 60.941406 203.410156 C 59.507812 205.867188 58.210938 208.324219 56.910156 210.851562 C 54.660156 227.710938 51.792969 244.574219 49.539062 261.4375 C 46.875 282.871094 43.601562 304.171875 41.6875 325.675781 C 57.253906 325.8125 72.816406 325.472656 88.382812 325.878906 L 110.230469 269.96875 C 110.433594 269.355469 110.636719 268.742188 110.84375 268.125 C 111.117188 267.582031 111.390625 267.035156 111.59375 266.488281 C 113.164062 263.144531 114.394531 259.660156 115.621094 256.179688 C 130.640625 254.132812 145.796875 252.902344 160.953125 252.015625 L 230.652344 267.035156 L 259.324219 325.8125 C 274.140625 325.8125 289.019531 325.878906 303.902344 325.8125 L 275.164062 248.191406 L 275.164062 248.125 C 271.542969 238.703125 267.859375 229.351562 264.035156 220.066406 C 263.832031 219.042969 263.421875 216.992188 263.285156 215.96875 C 285.949219 213.511719 308.613281 210.851562 331.347656 208.9375 L 331.003906 211.464844 C 327.25 224.570312 324.042969 237.882812 320.902344 251.128906 C 315.917969 250.035156 310.730469 249.285156 305.953125 247.441406 C 303.425781 242.320312 302.675781 236.519531 300.558594 231.195312 C 294.484375 234.265625 288.75 237.816406 283.015625 241.367188 C 288.40625 250.785156 293.1875 260.480469 298.921875 269.628906 C 302.605469 273.109375 307.453125 275.292969 311.753906 277.957031 C 313.9375 279.664062 316.667969 278.640625 319.128906 278.296875 C 324.929688 277.683594 330.664062 276.589844 336.332031 275.363281 C 343.226562 261.09375 350.734375 247.167969 357.5625 232.902344 L 357.5625 231.46875 C 358.109375 214.945312 357.972656 198.355469 358.109375 181.769531 C 357.902344 180.265625 357.902344 178.832031 357.835938 177.46875 Z M 304.3125 153.027344 C 309.5 149.613281 314.894531 146.40625 320.289062 143.265625 C 320.96875 145.039062 321.585938 146.816406 322.199219 148.589844 C 322.675781 151.046875 322.882812 153.574219 323.222656 156.03125 C 316.875 155.144531 310.59375 154.121094 304.3125 153.027344 Z M 304.3125 153.027344 "/></g><g clip-rule="nonzero" clip-path="url(#4ad9c2bf7a)"><path style=" stroke:none;fill-rule:nonzero;fill:#ffffff;fill-opacity:1;" d="M 54.316406 198.015625 C 59.234375 187.503906 64.96875 177.332031 69.0625 166.476562 C 51.3125 189.550781 33.566406 212.761719 16.566406 236.449219 C 26.667969 228.871094 35.75 220.132812 45.511719 212.148438 C 50.222656 208.734375 51.722656 202.863281 54.316406 198.015625 Z M 54.316406 198.015625 "/></g><path style=" stroke:none;fill-rule:nonzero;fill:#ffffff;fill-opacity:1;" d="M 158.5625 259.867188 L 119.71875 261.847656 C 117.398438 283.144531 113.984375 304.308594 112.34375 325.675781 C 129.34375 325.675781 146.34375 325.675781 163.410156 325.675781 C 163.410156 315.84375 162.042969 306.082031 161.226562 296.253906 C 160.953125 284.167969 159.449219 272.019531 158.5625 259.867188 Z M 158.5625 259.867188 "/><path style=" stroke:none;fill-rule:nonzero;fill:#ffffff;fill-opacity:1;" d="M 186.140625 264.234375 L 184.980469 325.878906 L 230.992188 325.746094 L 229.152344 274.269531 Z M 186.140625 264.234375 "/><g style="fill:#ffffff;fill-opacity:1;"><g transform="translate(93.124415, 211.110411)"><path style="stroke:none" d="M 1.953125 -18.15625 L 17.65625 -18.15625 L 17.65625 -13.796875 L 7.78125 -13.796875 L 7.78125 -11.296875 L 16.234375 -11.296875 L 16.234375 -7.125 L 7.78125 -7.125 L 7.78125 -4.359375 L 17.84375 -4.359375 L 17.84375 0 L 1.953125 0 Z M 1.953125 -18.15625 "/></g></g><g style="fill:#ffffff;fill-opacity:1;"><g transform="translate(115.319531, 211.110411)"><path style="stroke:none" d="M 1.953125 -18.15625 L 7.78125 -18.15625 L 7.78125 -4.640625 L 17.09375 -4.640625 L 17.09375 0 L 1.953125 0 Z M 1.953125 -18.15625 "/></g></g><g style="fill:#ffffff;fill-opacity:1;"><g transform="translate(136.06316, 211.110411)"><path style="stroke:none" d="M 1.953125 -18.15625 L 17.65625 -18.15625 L 17.65625 -13.796875 L 7.78125 -13.796875 L 7.78125 -11.296875 L 16.234375 -11.296875 L 16.234375 -7.125 L 7.78125 -7.125 L 7.78125 -4.359375 L 17.84375 -4.359375 L 17.84375 0 L 1.953125 0 Z M 1.953125 -18.15625 "/></g></g><g style="fill:#ffffff;fill-opacity:1;"><g transform="translate(158.258277, 211.110411)"><path style="stroke:none" d="M 12.140625 -18.15625 C 13.265625 -18.15625 14.265625 -17.894531 15.140625 -17.375 C 16.023438 -16.851562 16.710938 -16.140625 17.203125 -15.234375 C 17.703125 -14.328125 17.953125 -13.3125 17.953125 -12.1875 L 17.953125 -11.84375 C 17.953125 -10.71875 17.703125 -9.695312 17.203125 -8.78125 C 16.710938 -7.875 16.023438 -7.160156 15.140625 -6.640625 C 14.265625 -6.117188 13.265625 -5.859375 12.140625 -5.859375 L 7.78125 -5.859375 L 7.78125 0 L 1.953125 0 L 1.953125 -18.15625 Z M 7.78125 -10.109375 L 10.1875 -10.109375 C 10.800781 -10.109375 11.257812 -10.265625 11.5625 -10.578125 C 11.875 -10.898438 12.03125 -11.332031 12.03125 -11.875 L 12.03125 -12.09375 C 12.03125 -12.65625 11.875 -13.085938 11.5625 -13.390625 C 11.257812 -13.703125 10.800781 -13.859375 10.1875 -13.859375 L 7.78125 -13.859375 Z M 7.78125 -10.109375 "/></g></g><g style="fill:#ffffff;fill-opacity:1;"><g transform="translate(180.453393, 211.110411)"><path style="stroke:none" d="M 14.203125 0 L 14.203125 -6.890625 L 7.78125 -6.890625 L 7.78125 0 L 1.953125 0 L 1.953125 -18.15625 L 7.78125 -18.15625 L 7.78125 -11.53125 L 14.203125 -11.53125 L 14.203125 -18.15625 L 20.03125 -18.15625 L 20.03125 0 Z M 14.203125 0 "/></g></g><g style="fill:#ffffff;fill-opacity:1;"><g transform="translate(205.577865, 211.110411)"><path style="stroke:none" d="M 14.125 0 L 13.359375 -2.5625 L 7 -2.5625 L 6.234375 0 L 0.265625 0 L 6.890625 -18.15625 L 13.671875 -18.15625 L 20.296875 0 Z M 8.203125 -6.625 L 12.140625 -6.625 L 10.234375 -13.09375 L 10.140625 -13.09375 Z M 8.203125 -6.625 "/></g></g><g style="fill:#ffffff;fill-opacity:1;"><g transform="translate(229.250849, 211.110411)"><path style="stroke:none" d="M 14.9375 0 L 7.3125 -8.8125 L 7.3125 0 L 1.953125 0 L 1.953125 -18.15625 L 7.046875 -18.15625 L 14.671875 -9.203125 L 14.671875 -18.15625 L 20.03125 -18.15625 L 20.03125 0 Z M 14.9375 0 "/></g></g><g style="fill:#ffffff;fill-opacity:1;"><g transform="translate(254.375321, 211.110411)"><path style="stroke:none" d="M 12.40625 -13.515625 L 12.40625 0 L 6.578125 0 L 6.578125 -13.515625 L 0.609375 -13.515625 L 0.609375 -18.15625 L 18.34375 -18.15625 L 18.34375 -13.515625 Z M 12.40625 -13.515625 "/></g></g></g></svg>