<svg xmlns="http://www.w3.org/2000/svg" xmlns:xlink="http://www.w3.org/1999/xlink" width="500" zoomAndPan="magnify" viewBox="0 0 375 89.999999" height="120" preserveAspectRatio="xMidYMid meet" version="1.2"><defs><clipPath id="fb08841e60"><path d="M 27 7.148438 L 115.609375 7.148438 L 115.609375 84.398438 L 27 84.398438 Z M 27 7.148438 "/></clipPath><clipPath id="88d2c7cb8e"><path d="M 20.359375 39 L 35 39 L 35 60 L 20.359375 60 Z M 20.359375 39 "/></clipPath><clipPath id="889aec8de6"><path d="M 47 65 L 62 65 L 62 84.398438 L 47 84.398438 Z M 47 65 "/></clipPath><clipPath id="a481fbebcd"><path d="M 67 67 L 81 67 L 81 84.398438 L 67 84.398438 Z M 67 67 "/></clipPath></defs><g id="1fa6b5e6f3"><g clip-rule="nonzero" clip-path="url(#fb08841e60)"><path style=" stroke:none;fill-rule:nonzero;fill:#ffffff;fill-opacity:1;" d="M 115.367188 43.019531 L 115.367188 42.050781 L 115.0625 40.8125 C 115.042969 40.71875 115.027344 40.625 115.007812 40.53125 C 114.96875 40.394531 114.929688 40.261719 114.910156 40.148438 L 111.8125 27.71875 L 108.867188 24.183594 C 107.785156 22.816406 106.71875 21.46875 105.542969 20.195312 L 95.753906 16.222656 L 73.554688 7.214844 C 73.0625 9.339844 72.132812 11.335938 71.464844 13.429688 C 70.324219 16.8125 69.015625 20.136719 67.96875 23.539062 L 68.882812 37.394531 L 74.183594 39.882812 C 77.375 41.382812 80.570312 42.90625 83.78125 44.386719 L 83.78125 44.480469 C 77.738281 42.734375 71.75 40.796875 65.6875 39.140625 C 65.363281 33.328125 65.136719 27.511719 64.738281 21.714844 C 57.175781 25.097656 49.554688 28.421875 42.066406 31.976562 C 39.023438 38.097656 35.753906 44.121094 32.714844 50.242188 C 32.316406 50.925781 31.953125 51.609375 31.59375 52.3125 C 30.964844 57.007812 30.167969 61.699219 29.539062 66.394531 C 28.800781 72.363281 27.886719 78.292969 27.355469 84.28125 C 31.6875 84.316406 36.019531 84.222656 40.355469 84.335938 L 46.4375 68.769531 C 46.492188 68.601562 46.550781 68.429688 46.605469 68.257812 C 46.683594 68.105469 46.757812 67.953125 46.816406 67.800781 C 47.253906 66.871094 47.59375 65.902344 47.9375 64.933594 C 52.117188 64.363281 56.335938 64.019531 60.558594 63.773438 L 79.960938 67.953125 L 87.941406 84.316406 C 92.066406 84.316406 96.210938 84.335938 100.355469 84.316406 L 92.351562 62.707031 L 92.351562 62.6875 C 91.34375 60.066406 90.320312 57.464844 89.253906 54.878906 C 89.199219 54.59375 89.082031 54.023438 89.046875 53.738281 C 95.355469 53.054688 101.664062 52.3125 107.992188 51.78125 L 107.898438 52.484375 C 106.855469 56.132812 105.960938 59.839844 105.085938 63.527344 C 103.699219 63.222656 102.253906 63.011719 100.925781 62.5 C 100.222656 61.074219 100.011719 59.457031 99.421875 57.976562 C 97.730469 58.832031 96.132812 59.820312 94.539062 60.808594 C 96.039062 63.429688 97.371094 66.128906 98.964844 68.675781 C 99.992188 69.644531 101.34375 70.253906 102.539062 70.996094 C 103.148438 71.46875 103.90625 71.183594 104.59375 71.089844 C 106.207031 70.917969 107.804688 70.613281 109.382812 70.273438 C 111.300781 66.300781 113.390625 62.421875 115.292969 58.453125 L 115.292969 58.050781 C 115.445312 53.453125 115.40625 48.835938 115.445312 44.214844 C 115.386719 43.796875 115.386719 43.398438 115.367188 43.019531 Z M 100.46875 36.214844 C 101.914062 35.265625 103.414062 34.371094 104.914062 33.496094 C 105.105469 33.992188 105.277344 34.484375 105.445312 34.980469 C 105.582031 35.664062 105.636719 36.367188 105.730469 37.050781 C 103.964844 36.804688 102.214844 36.519531 100.46875 36.214844 Z M 100.46875 36.214844 "/></g><g clip-rule="nonzero" clip-path="url(#88d2c7cb8e)"><path style=" stroke:none;fill-rule:nonzero;fill:#ffffff;fill-opacity:1;" d="M 30.871094 48.738281 C 32.238281 45.8125 33.835938 42.980469 34.976562 39.960938 C 30.035156 46.382812 25.09375 52.84375 20.359375 59.441406 C 23.171875 57.328125 25.699219 54.898438 28.417969 52.671875 C 29.730469 51.722656 30.148438 50.089844 30.871094 48.738281 Z M 30.871094 48.738281 "/></g><g clip-rule="nonzero" clip-path="url(#889aec8de6)"><path style=" stroke:none;fill-rule:nonzero;fill:#ffffff;fill-opacity:1;" d="M 59.890625 65.957031 L 49.078125 66.507812 C 48.429688 72.4375 47.480469 78.332031 47.023438 84.28125 C 51.757812 84.28125 56.488281 84.28125 61.242188 84.28125 C 61.242188 81.542969 60.859375 78.824219 60.632812 76.089844 C 60.558594 72.722656 60.136719 69.339844 59.890625 65.957031 Z M 59.890625 65.957031 "/></g><g clip-rule="nonzero" clip-path="url(#a481fbebcd)"><path style=" stroke:none;fill-rule:nonzero;fill:#ffffff;fill-opacity:1;" d="M 67.570312 67.175781 L 67.246094 84.335938 L 80.054688 84.296875 L 79.542969 69.96875 Z M 67.570312 67.175781 "/></g><g style="fill:#ffffff;fill-opacity:1;"><g transform="translate(127.076817, 61.16509)"><path style="stroke:none" d="M 18.25 -33.765625 C 30.0625 -33.765625 35.96875 -28.140625 35.96875 -16.890625 C 35.96875 -5.628906 30.0625 0 18.25 0 L 3.625 0 L 3.625 -33.765625 Z M 14.484375 -8.09375 L 18.0625 -8.09375 C 22.601562 -8.09375 24.875 -10.53125 24.875 -15.40625 L 24.875 -18.359375 C 24.875 -23.234375 22.601562 -25.671875 18.0625 -25.671875 L 14.484375 -25.671875 Z M 14.484375 -8.09375 "/></g></g><g style="fill:#ffffff;fill-opacity:1;"><g transform="translate(170.498679, 61.16509)"><path style="stroke:none" d="M 37.25 -13.59375 C 37.25 -8.976562 35.789062 -5.457031 32.875 -3.03125 C 29.96875 -0.613281 25.832031 0.59375 20.46875 0.59375 C 15.101562 0.59375 10.953125 -0.613281 8.015625 -3.03125 C 5.085938 -5.457031 3.625 -8.976562 3.625 -13.59375 L 3.625 -33.765625 L 14.484375 -33.765625 L 14.484375 -13.734375 C 14.484375 -11.835938 14.988281 -10.328125 16 -9.203125 C 17.007812 -8.078125 18.484375 -7.515625 20.421875 -7.515625 C 22.347656 -7.515625 23.828125 -8.082031 24.859375 -9.21875 C 25.890625 -10.363281 26.40625 -11.867188 26.40625 -13.734375 L 26.40625 -33.765625 L 37.25 -33.765625 Z M 37.25 -13.59375 "/></g></g><g style="fill:#ffffff;fill-opacity:1;"><g transform="translate(216.61895, 61.16509)"><path style="stroke:none" d="M 32.640625 0 L 32.640625 -12.171875 C 32.640625 -13.671875 32.695312 -15.210938 32.8125 -16.796875 C 32.925781 -18.390625 33.046875 -19.722656 33.171875 -20.796875 C 33.304688 -21.878906 33.390625 -22.570312 33.421875 -22.875 L 33.21875 -22.875 L 27 0 L 18.5 0 L 12.21875 -22.828125 L 12.03125 -22.828125 C 12.0625 -22.523438 12.148438 -21.84375 12.296875 -20.78125 C 12.441406 -19.71875 12.578125 -18.390625 12.703125 -16.796875 C 12.835938 -15.210938 12.90625 -13.671875 12.90625 -12.171875 L 12.90625 0 L 2.9375 0 L 2.9375 -33.765625 L 18.25 -33.765625 L 23.359375 -14.28125 L 23.5625 -14.28125 L 28.609375 -33.765625 L 43.390625 -33.765625 L 43.390625 0 Z M 32.640625 0 "/></g></g><g style="fill:#ffffff;fill-opacity:1;"><g transform="translate(268.185103, 61.16509)"><path style="stroke:none" d="M 26.109375 -33.765625 C 27.804688 -33.765625 29.367188 -33.410156 30.796875 -32.703125 C 32.222656 -32.003906 33.351562 -31.015625 34.1875 -29.734375 C 35.019531 -28.460938 35.4375 -27.039062 35.4375 -25.46875 C 35.4375 -21.3125 33.554688 -18.695312 29.796875 -17.625 L 29.796875 -17.421875 C 34.078125 -16.441406 36.21875 -13.628906 36.21875 -8.984375 C 36.21875 -7.210938 35.785156 -5.644531 34.921875 -4.28125 C 34.054688 -2.925781 32.867188 -1.875 31.359375 -1.125 C 29.859375 -0.375 28.207031 0 26.40625 0 L 3.625 0 L 3.625 -33.765625 Z M 14.484375 -20.609375 L 21.9375 -20.609375 C 22.65625 -20.609375 23.25 -20.863281 23.71875 -21.375 C 24.195312 -21.882812 24.4375 -22.515625 24.4375 -23.265625 L 24.4375 -23.75 C 24.4375 -24.46875 24.191406 -25.082031 23.703125 -25.59375 C 23.210938 -26.101562 22.625 -26.359375 21.9375 -26.359375 L 14.484375 -26.359375 Z M 14.484375 -7.859375 L 22.71875 -7.859375 C 23.4375 -7.859375 24.03125 -8.109375 24.5 -8.609375 C 24.976562 -9.117188 25.21875 -9.75 25.21875 -10.5 L 25.21875 -11 C 25.21875 -11.75 24.976562 -12.375 24.5 -12.875 C 24.03125 -13.382812 23.4375 -13.640625 22.71875 -13.640625 L 14.484375 -13.640625 Z M 14.484375 -7.859375 "/></g></g><g style="fill:#ffffff;fill-opacity:1;"><g transform="translate(311.606965, 61.16509)"><path style="stroke:none" d="M 20.421875 -34.359375 C 26.242188 -34.359375 30.738281 -32.867188 33.90625 -29.890625 C 37.082031 -26.910156 38.671875 -22.578125 38.671875 -16.890625 C 38.671875 -11.191406 37.082031 -6.851562 33.90625 -3.875 C 30.738281 -0.894531 26.242188 0.59375 20.421875 0.59375 C 14.597656 0.59375 10.101562 -0.882812 6.9375 -3.84375 C 3.78125 -6.8125 2.203125 -11.160156 2.203125 -16.890625 C 2.203125 -22.609375 3.78125 -26.945312 6.9375 -29.90625 C 10.101562 -32.875 14.597656 -34.359375 20.421875 -34.359375 Z M 20.421875 -26.25 C 18.097656 -26.25 16.328125 -25.546875 15.109375 -24.140625 C 13.898438 -22.734375 13.296875 -20.835938 13.296875 -18.453125 L 13.296875 -15.3125 C 13.296875 -12.925781 13.898438 -11.03125 15.109375 -9.625 C 16.328125 -8.21875 18.097656 -7.515625 20.421875 -7.515625 C 22.742188 -7.515625 24.515625 -8.21875 25.734375 -9.625 C 26.960938 -11.03125 27.578125 -12.925781 27.578125 -15.3125 L 27.578125 -18.453125 C 27.578125 -20.835938 26.960938 -22.734375 25.734375 -24.140625 C 24.515625 -25.546875 22.742188 -26.25 20.421875 -26.25 Z M 20.421875 -26.25 "/></g></g></g></svg>